<?xml version="1.0" encoding="UTF-8" standalone="no"?>
<!-- Created with Inkscape (http://www.inkscape.org/) -->

<svg
   xmlns:dc="http://purl.org/dc/elements/1.1/"
   xmlns:cc="http://creativecommons.org/ns#"
   xmlns:rdf="http://www.w3.org/1999/02/22-rdf-syntax-ns#"
   xmlns:svg="http://www.w3.org/2000/svg"
   xmlns="http://www.w3.org/2000/svg"
   xmlns:sodipodi="http://sodipodi.sourceforge.net/DTD/sodipodi-0.dtd"
   xmlns:inkscape="http://www.inkscape.org/namespaces/inkscape"
   width="512"
   height="512"
   viewBox="0 0 135.46666 135.46667"
   version="1.1"
   id="svg8"
   inkscape:version="0.92.3 (2405546, 2018-03-11)"
   sodipodi:docname="ptc_color.svg">
  <defs
     id="defs2">
    <clipPath
       id="clipPath839"
       clipPathUnits="userSpaceOnUse">
      <path
         inkscape:connector-curvature="0"
         id="path837"
         d="M 0,512 H 512 V 0 H 0 Z" />
    </clipPath>
    <clipPath
       clipPathUnits="userSpaceOnUse"
       id="clipPath870">
      <rect
         style="opacity:1;fill:#ff78ff;fill-opacity:0.43718597;stroke:none;stroke-width:0.63766921;stroke-opacity:1"
         id="rect872"
         width="116.29381"
         height="134.26582"
         x="99.595291"
         y="-308.79782"
         transform="scale(1,-1)" />
    </clipPath>
  </defs>
  <sodipodi:namedview
     id="base"
     pagecolor="#ffffff"
     bordercolor="#666666"
     borderopacity="1.0"
     inkscape:pageopacity="0.0"
     inkscape:pageshadow="2"
     inkscape:zoom="0.49497475"
     inkscape:cx="-287.15889"
     inkscape:cy="436.75143"
     inkscape:document-units="mm"
     inkscape:current-layer="layer1"
     showgrid="false"
     units="px"
     inkscape:window-width="1920"
     inkscape:window-height="1017"
     inkscape:window-x="1912"
     inkscape:window-y="-8"
     inkscape:window-maximized="1" />
  <metadata
     id="metadata5">
    <rdf:RDF>
      <cc:Work
         rdf:about="">
        <dc:format>image/svg+xml</dc:format>
        <dc:type
           rdf:resource="http://purl.org/dc/dcmitype/StillImage" />
        <dc:title></dc:title>
      </cc:Work>
    </rdf:RDF>
  </metadata>
  <g
     inkscape:label="Layer 1"
     inkscape:groupmode="layer"
     id="layer1"
     transform="translate(0,-161.53332)">
    <g
       transform="matrix(1.0103082,0,0,-1.0103082,-91.634904,473.3311)"
       inkscape:label="PTC-logo"
       id="g823"
       clip-path="url(#clipPath870)">
      <g
         transform="translate(157.7763,308.6165)"
         id="g825">
        <path
           inkscape:connector-curvature="0"
           id="path827"
           style="fill:#6d6f71;fill-opacity:1;fill-rule:nonzero;stroke:none"
           d="M 0,0 -58.181,-33.609 V -63.316 L 0,-29.473 32.72,-48.246 26.209,-52.03 0,-36.956 -22.798,-50.143 29.299,-80.308 58.181,-63.403 v 29.794 z" />
      </g>
      <g
         transform="translate(157.7763,174.3509)"
         id="g829">
        <path
           inkscape:connector-curvature="0"
           id="path831"
           style="fill:#6bc04b;fill-opacity:1;fill-rule:nonzero;stroke:none"
           d="M 0,0 58.181,33.535 V 63.316 L 0,29.472 -32.723,48.246 -26.209,52.029 0,36.956 22.798,50.143 -29.299,80.308 -58.181,63.403 V 33.535 Z" />
      </g>
      <g
         id="g833">
        <g
           clip-path="url(#clipPath839)"
           id="g835">
          <g
             transform="translate(296.2626,267.0358)"
             id="g841">
            <path
               inkscape:connector-curvature="0"
               id="path843"
               style="fill:#6d6f71;fill-opacity:1;fill-rule:nonzero;stroke:none"
               d="m 0,0 c -7.07,0 -12.654,-2.445 -16.755,-7.33 -3.928,-4.627 -5.892,-10.471 -5.892,-17.541 0,-7.069 1.964,-12.917 5.892,-17.541 4.101,-4.887 9.685,-7.329 16.755,-7.329 6.98,0 12.65,2.442 17.015,7.329 4.101,4.624 6.152,10.472 6.152,17.541 0,7.07 -2.051,12.914 -6.152,17.541 C 12.65,-2.445 6.98,0 0,0 m -22.124,-2.619 c 5.238,7.68 13.045,11.521 23.433,11.521 9.425,0 17.057,-3.273 22.907,-9.82 5.844,-6.46 8.771,-14.441 8.771,-23.953 0,-9.512 -2.927,-17.496 -8.771,-23.953 -5.85,-6.543 -13.703,-9.816 -23.561,-9.816 -9.862,0 -17.455,3.879 -22.779,11.649 v -36.52 h -9.813 V 7.853 h 9.813 z" />
          </g>
          <g
             transform="translate(349.6673,209.4419)"
             id="g845">
            <path
               inkscape:connector-curvature="0"
               id="path847"
               style="fill:#6d6f71;fill-opacity:1;fill-rule:nonzero;stroke:none"
               d="m 0,0 v 56.808 h -13.353 v 8.639 H 0 v 23.43 H 9.817 V 65.447 H 24.871 V 56.808 H 9.817 V 0 Z" />
          </g>
          <g
             transform="translate(415.8997,217.2951)"
             id="g849">
            <path
               inkscape:connector-curvature="0"
               id="path851"
               style="fill:#6d6f71;fill-opacity:1;fill-rule:nonzero;stroke:none"
               d="m 0,0 c 4.188,0 7.898,1.178 11.126,3.536 3.228,2.356 5.584,5.408 7.067,9.162 H 28.795 C 26.79,6.238 23.125,1.046 17.801,-2.879 12.214,-6.893 5.584,-8.902 -2.096,-8.902 c -9.598,0 -17.409,3.273 -23.429,9.82 -5.847,6.367 -8.768,14.351 -8.768,23.953 0,9.598 2.921,17.582 8.768,23.953 6.02,6.543 13.831,9.816 23.429,9.816 7.68,0 14.31,-2.009 19.897,-6.02 5.324,-3.925 8.989,-9.12 10.994,-15.577 H 18.193 C 16.71,40.794 14.354,43.849 11.126,46.205 7.898,48.564 4.188,49.741 0,49.741 c -4.188,0 -7.744,-0.654 -10.67,-1.964 -2.924,-1.309 -5.389,-3.1 -7.394,-5.365 -4.278,-4.715 -6.412,-10.561 -6.412,-17.541 0,-6.983 2.134,-12.827 6.412,-17.541 C -13.703,2.442 -7.679,0 0,0" />
          </g>
        </g>
      </g>
    </g>
  </g>
</svg>
